<mxfile host="www.draw.io" modified="2020-01-03T03:03:37.271Z" agent="Mozilla/5.0 (Macintosh; Intel Mac OS X 10_15_2) AppleWebKit/537.36 (KHTML, like Gecko) Chrome/79.0.3945.88 Safari/537.36" etag="h7f9mIe6I0V6Ghhsvt58" version="12.4.8" type="github" pages="2">
  <diagram id="86Uga7-Gd4g3QrR7SwTo" name="Page-1">
    <mxGraphModel dx="3083" dy="1909" grid="1" gridSize="10" guides="1" tooltips="1" connect="1" arrows="1" fold="1" page="1" pageScale="1" pageWidth="1169" pageHeight="827" math="0" shadow="0">
      <root>
        <mxCell id="0"/>
        <mxCell id="1" parent="0"/>
        <mxCell id="ge_ubduK_eUvUoq6MuhH-8" value="" style="rounded=1;whiteSpace=wrap;html=1;fillColor=#ffe6cc;strokeColor=#d79b00;arcSize=8;" parent="1" vertex="1">
          <mxGeometry x="80" y="200" width="930" height="250" as="geometry"/>
        </mxCell>
        <mxCell id="ge_ubduK_eUvUoq6MuhH-6" value="定位" style="rounded=0;whiteSpace=wrap;html=1;" parent="1" vertex="1">
          <mxGeometry x="120" y="250" width="120" height="160" as="geometry"/>
        </mxCell>
        <mxCell id="ge_ubduK_eUvUoq6MuhH-7" value="室内算路" style="rounded=0;whiteSpace=wrap;html=1;" parent="1" vertex="1">
          <mxGeometry x="260" y="250" width="120" height="160" as="geometry"/>
        </mxCell>
        <mxCell id="ge_ubduK_eUvUoq6MuhH-9" value="跨平台层" style="text;html=1;strokeColor=none;fillColor=none;align=center;verticalAlign=middle;whiteSpace=wrap;rounded=0;" parent="1" vertex="1">
          <mxGeometry x="84" y="210" width="66" height="20" as="geometry"/>
        </mxCell>
        <mxCell id="jLUdKfTGCnAxgIvCnTzw-3" value="" style="group;strokeColor=#000000;" vertex="1" connectable="0" parent="1">
          <mxGeometry x="410" y="250" width="550" height="160" as="geometry"/>
        </mxCell>
        <mxCell id="ge_ubduK_eUvUoq6MuhH-1" value="" style="rounded=0;whiteSpace=wrap;html=1;" parent="jLUdKfTGCnAxgIvCnTzw-3" vertex="1">
          <mxGeometry width="550" height="160" as="geometry"/>
        </mxCell>
        <mxCell id="ge_ubduK_eUvUoq6MuhH-2" value="AR SDK" style="text;html=1;strokeColor=none;fillColor=none;align=center;verticalAlign=middle;whiteSpace=wrap;rounded=0;" parent="jLUdKfTGCnAxgIvCnTzw-3" vertex="1">
          <mxGeometry x="10" y="10" width="60" height="20" as="geometry"/>
        </mxCell>
        <mxCell id="ge_ubduK_eUvUoq6MuhH-3" value="AR 步导业务层" style="rounded=0;whiteSpace=wrap;html=1;" parent="jLUdKfTGCnAxgIvCnTzw-3" vertex="1">
          <mxGeometry x="70" y="10" width="460" height="40" as="geometry"/>
        </mxCell>
        <mxCell id="ge_ubduK_eUvUoq6MuhH-4" value="渲染引擎(OpenGL/Metal)" style="rounded=0;whiteSpace=wrap;html=1;" parent="jLUdKfTGCnAxgIvCnTzw-3" vertex="1">
          <mxGeometry x="30" y="100" width="240" height="40" as="geometry"/>
        </mxCell>
        <mxCell id="ge_ubduK_eUvUoq6MuhH-5" value="AR Core/AR Kit" style="rounded=0;whiteSpace=wrap;html=1;" parent="jLUdKfTGCnAxgIvCnTzw-3" vertex="1">
          <mxGeometry x="290" y="100" width="240" height="40" as="geometry"/>
        </mxCell>
        <mxCell id="jLUdKfTGCnAxgIvCnTzw-61" value="平台特性隔离层" style="rounded=0;whiteSpace=wrap;html=1;" vertex="1" parent="jLUdKfTGCnAxgIvCnTzw-3">
          <mxGeometry x="30" y="60" width="500" height="30" as="geometry"/>
        </mxCell>
        <mxCell id="jLUdKfTGCnAxgIvCnTzw-6" value="" style="rounded=1;whiteSpace=wrap;html=1;fillColor=#f8cecc;arcSize=9;strokeColor=#b85450;" vertex="1" parent="1">
          <mxGeometry x="80" y="490" width="930" height="250" as="geometry"/>
        </mxCell>
        <mxCell id="jLUdKfTGCnAxgIvCnTzw-7" value="服务" style="text;html=1;strokeColor=none;fillColor=none;align=center;verticalAlign=middle;whiteSpace=wrap;rounded=0;" vertex="1" parent="1">
          <mxGeometry x="80" y="510" width="40" height="20" as="geometry"/>
        </mxCell>
        <mxCell id="jLUdKfTGCnAxgIvCnTzw-11" value="视觉定位服务" style="rounded=0;whiteSpace=wrap;html=1;" vertex="1" parent="1">
          <mxGeometry x="120" y="630" width="120" height="80" as="geometry"/>
        </mxCell>
        <mxCell id="jLUdKfTGCnAxgIvCnTzw-12" value="算路服务" style="rounded=0;whiteSpace=wrap;html=1;" vertex="1" parent="1">
          <mxGeometry x="260" y="630" width="120" height="30" as="geometry"/>
        </mxCell>
        <mxCell id="jLUdKfTGCnAxgIvCnTzw-13" value="诱导服务" style="rounded=0;whiteSpace=wrap;html=1;" vertex="1" parent="1">
          <mxGeometry x="260" y="680" width="120" height="30" as="geometry"/>
        </mxCell>
        <mxCell id="jLUdKfTGCnAxgIvCnTzw-17" value="仿真数据上/下载服务" style="rounded=0;whiteSpace=wrap;html=1;" vertex="1" parent="1">
          <mxGeometry x="700" y="630" width="260" height="80" as="geometry"/>
        </mxCell>
        <mxCell id="jLUdKfTGCnAxgIvCnTzw-19" value="云控平台策略更新服务" style="rounded=0;whiteSpace=wrap;html=1;" vertex="1" parent="1">
          <mxGeometry x="410" y="630" width="260" height="80" as="geometry"/>
        </mxCell>
        <mxCell id="jLUdKfTGCnAxgIvCnTzw-20" value="" style="rounded=1;whiteSpace=wrap;html=1;fillColor=#fff2cc;arcSize=8;strokeColor=#d6b656;" vertex="1" parent="1">
          <mxGeometry x="75" y="780" width="930" height="230" as="geometry"/>
        </mxCell>
        <mxCell id="jLUdKfTGCnAxgIvCnTzw-21" value="数据" style="text;html=1;strokeColor=none;fillColor=none;align=center;verticalAlign=middle;whiteSpace=wrap;rounded=0;" vertex="1" parent="1">
          <mxGeometry x="85" y="800" width="40" height="20" as="geometry"/>
        </mxCell>
        <mxCell id="jLUdKfTGCnAxgIvCnTzw-23" value="图像指纹库" style="shape=datastore;whiteSpace=wrap;html=1;" vertex="1" parent="1">
          <mxGeometry x="120" y="865" width="110" height="105" as="geometry"/>
        </mxCell>
        <mxCell id="jLUdKfTGCnAxgIvCnTzw-24" value="路网数据" style="shape=datastore;whiteSpace=wrap;html=1;" vertex="1" parent="1">
          <mxGeometry x="265" y="865" width="110" height="105" as="geometry"/>
        </mxCell>
        <mxCell id="jLUdKfTGCnAxgIvCnTzw-25" value="样本库" style="shape=datastore;whiteSpace=wrap;html=1;" vertex="1" parent="1">
          <mxGeometry x="775" y="865" width="110" height="105" as="geometry"/>
        </mxCell>
        <mxCell id="jLUdKfTGCnAxgIvCnTzw-26" value="" style="rounded=1;whiteSpace=wrap;html=1;strokeColor=#82b366;fillColor=#d5e8d4;arcSize=13;" vertex="1" parent="1">
          <mxGeometry x="-180" y="490" width="190" height="250" as="geometry"/>
        </mxCell>
        <mxCell id="jLUdKfTGCnAxgIvCnTzw-27" value="地图制作平台" style="text;html=1;strokeColor=none;fillColor=none;align=center;verticalAlign=middle;whiteSpace=wrap;rounded=0;" vertex="1" parent="1">
          <mxGeometry x="-145" y="510" width="80" height="20" as="geometry"/>
        </mxCell>
        <mxCell id="jLUdKfTGCnAxgIvCnTzw-28" value="HMI" style="rounded=0;whiteSpace=wrap;html=1;" vertex="1" parent="1">
          <mxGeometry x="-145" y="540" width="120" height="60" as="geometry"/>
        </mxCell>
        <mxCell id="jLUdKfTGCnAxgIvCnTzw-29" value="三维地图工具" style="rounded=0;whiteSpace=wrap;html=1;" vertex="1" parent="1">
          <mxGeometry x="-145" y="640" width="120" height="60" as="geometry"/>
        </mxCell>
        <mxCell id="jLUdKfTGCnAxgIvCnTzw-30" value="采集" style="shape=umlActor;verticalLabelPosition=bottom;labelBackgroundColor=#ffffff;verticalAlign=top;html=1;outlineConnect=0;strokeColor=#000000;fillColor=#DAE8FC;" vertex="1" parent="1">
          <mxGeometry x="-110" y="210" width="50" height="100" as="geometry"/>
        </mxCell>
        <mxCell id="jLUdKfTGCnAxgIvCnTzw-35" value="" style="rounded=1;whiteSpace=wrap;html=1;strokeColor=#82b366;fillColor=#d5e8d4;arcSize=13;" vertex="1" parent="1">
          <mxGeometry x="1060" y="490" width="190" height="250" as="geometry"/>
        </mxCell>
        <mxCell id="jLUdKfTGCnAxgIvCnTzw-36" value="仿真数据平台" style="text;html=1;strokeColor=none;fillColor=none;align=center;verticalAlign=middle;whiteSpace=wrap;rounded=0;" vertex="1" parent="1">
          <mxGeometry x="1095" y="510" width="80" height="20" as="geometry"/>
        </mxCell>
        <mxCell id="jLUdKfTGCnAxgIvCnTzw-37" value="数据可视化" style="rounded=0;whiteSpace=wrap;html=1;" vertex="1" parent="1">
          <mxGeometry x="1095" y="540" width="120" height="60" as="geometry"/>
        </mxCell>
        <mxCell id="jLUdKfTGCnAxgIvCnTzw-38" value="自动化测试工具" style="rounded=0;whiteSpace=wrap;html=1;" vertex="1" parent="1">
          <mxGeometry x="1095" y="640" width="120" height="60" as="geometry"/>
        </mxCell>
        <mxCell id="jLUdKfTGCnAxgIvCnTzw-39" value="" style="html=1;shadow=0;dashed=0;align=center;verticalAlign=middle;shape=mxgraph.arrows2.twoWayArrow;dy=0.65;dx=22;strokeColor=#000000;fillColor=#DAE8FC;rotation=90;" vertex="1" parent="1">
          <mxGeometry x="70" y="490" width="220" height="60" as="geometry"/>
        </mxCell>
        <mxCell id="jLUdKfTGCnAxgIvCnTzw-41" value="" style="html=1;shadow=0;dashed=0;align=center;verticalAlign=middle;shape=mxgraph.arrows2.twoWayArrow;dy=0.65;dx=22;strokeColor=#000000;fillColor=#DAE8FC;rotation=90;" vertex="1" parent="1">
          <mxGeometry x="210" y="490" width="220" height="60" as="geometry"/>
        </mxCell>
        <mxCell id="jLUdKfTGCnAxgIvCnTzw-42" value="" style="html=1;shadow=0;dashed=0;align=center;verticalAlign=middle;shape=mxgraph.arrows2.twoWayArrow;dy=0.65;dx=22;strokeColor=#000000;fillColor=#DAE8FC;rotation=90;" vertex="1" parent="1">
          <mxGeometry x="430" y="490" width="220" height="60" as="geometry"/>
        </mxCell>
        <mxCell id="jLUdKfTGCnAxgIvCnTzw-43" value="" style="html=1;shadow=0;dashed=0;align=center;verticalAlign=middle;shape=mxgraph.arrows2.twoWayArrow;dy=0.65;dx=22;strokeColor=#000000;fillColor=#DAE8FC;rotation=90;" vertex="1" parent="1">
          <mxGeometry x="720" y="490" width="220" height="60" as="geometry"/>
        </mxCell>
        <mxCell id="jLUdKfTGCnAxgIvCnTzw-10" value="手图后台服务" style="rounded=0;whiteSpace=wrap;html=1;" vertex="1" parent="1">
          <mxGeometry x="120" y="520" width="840" height="60" as="geometry"/>
        </mxCell>
        <mxCell id="jLUdKfTGCnAxgIvCnTzw-44" value="" style="html=1;shadow=0;dashed=0;align=center;verticalAlign=middle;shape=mxgraph.arrows2.twoWayArrow;dy=0.65;dx=22;strokeColor=#000000;fillColor=#DAE8FC;rotation=90;" vertex="1" parent="1">
          <mxGeometry x="760" y="760" width="140" height="60" as="geometry"/>
        </mxCell>
        <mxCell id="jLUdKfTGCnAxgIvCnTzw-45" value="" style="html=1;shadow=0;dashed=0;align=center;verticalAlign=middle;shape=mxgraph.arrows2.twoWayArrow;dy=0.65;dx=22;strokeColor=#000000;fillColor=#DAE8FC;rotation=90;" vertex="1" parent="1">
          <mxGeometry x="250" y="760" width="140" height="60" as="geometry"/>
        </mxCell>
        <mxCell id="jLUdKfTGCnAxgIvCnTzw-46" value="" style="html=1;shadow=0;dashed=0;align=center;verticalAlign=middle;shape=mxgraph.arrows2.twoWayArrow;dy=0.65;dx=22;strokeColor=#000000;fillColor=#DAE8FC;rotation=90;" vertex="1" parent="1">
          <mxGeometry x="110" y="760" width="140" height="60" as="geometry"/>
        </mxCell>
        <mxCell id="jLUdKfTGCnAxgIvCnTzw-47" value="" style="shape=singleArrow;direction=west;whiteSpace=wrap;html=1;strokeColor=#000000;fillColor=#DAE8FC;rotation=-90;" vertex="1" parent="1">
          <mxGeometry x="-135" y="383" width="100" height="60" as="geometry"/>
        </mxCell>
        <mxCell id="jLUdKfTGCnAxgIvCnTzw-48" value="" style="html=1;shadow=0;dashed=0;align=center;verticalAlign=middle;shape=mxgraph.arrows2.bendArrow;dy=15;dx=38;notch=0;arrowHead=55;rounded=1;strokeColor=#000000;fillColor=#DAE8FC;rotation=90;direction=north;flipH=1;" vertex="1" parent="1">
          <mxGeometry x="-119.84" y="739.52" width="230.32" height="198.08" as="geometry"/>
        </mxCell>
        <mxCell id="jLUdKfTGCnAxgIvCnTzw-49" value="" style="html=1;shadow=0;dashed=0;align=center;verticalAlign=middle;shape=mxgraph.arrows2.bendArrow;dy=15;dx=38;notch=0;arrowHead=55;rounded=1;strokeColor=#000000;fillColor=#DAE8FC;rotation=0;direction=north;flipH=1;" vertex="1" parent="1">
          <mxGeometry x="910" y="720" width="280.32" height="220" as="geometry"/>
        </mxCell>
        <mxCell id="jLUdKfTGCnAxgIvCnTzw-50" value="" style="endArrow=none;dashed=1;html=1;strokeWidth=3;" edge="1" parent="1">
          <mxGeometry width="50" height="50" relative="1" as="geometry">
            <mxPoint x="50" y="600" as="sourcePoint"/>
            <mxPoint x="250" y="1080" as="targetPoint"/>
            <Array as="points">
              <mxPoint x="250" y="600"/>
            </Array>
          </mxGeometry>
        </mxCell>
        <mxCell id="jLUdKfTGCnAxgIvCnTzw-51" value="" style="endArrow=none;dashed=1;html=1;strokeWidth=3;" edge="1" parent="1">
          <mxGeometry width="50" height="50" relative="1" as="geometry">
            <mxPoint x="-200" y="170" as="sourcePoint"/>
            <mxPoint x="50" y="600" as="targetPoint"/>
            <Array as="points">
              <mxPoint x="50" y="170"/>
            </Array>
          </mxGeometry>
        </mxCell>
        <mxCell id="jLUdKfTGCnAxgIvCnTzw-52" value="" style="endArrow=none;dashed=1;html=1;strokeWidth=3;" edge="1" parent="1">
          <mxGeometry width="50" height="50" relative="1" as="geometry">
            <mxPoint x="-200" y="1080" as="sourcePoint"/>
            <mxPoint x="-200" y="170" as="targetPoint"/>
          </mxGeometry>
        </mxCell>
        <mxCell id="jLUdKfTGCnAxgIvCnTzw-53" value="" style="endArrow=none;dashed=1;html=1;strokeWidth=3;" edge="1" parent="1">
          <mxGeometry width="50" height="50" relative="1" as="geometry">
            <mxPoint x="-200" y="1080" as="sourcePoint"/>
            <mxPoint x="250" y="1080" as="targetPoint"/>
          </mxGeometry>
        </mxCell>
        <mxCell id="jLUdKfTGCnAxgIvCnTzw-54" value="" style="rounded=1;whiteSpace=wrap;html=1;strokeColor=#000000;fillColor=none;dashed=1;strokeWidth=3;arcSize=8;" vertex="1" parent="1">
          <mxGeometry x="255" y="600" width="135" height="480" as="geometry"/>
        </mxCell>
        <mxCell id="mucKTUWWDkMtE_MBK47c-3" value="" style="rounded=1;whiteSpace=wrap;html=1;strokeWidth=2;fillColor=#DAE8FC;strokeColor=#6c8ebf;" parent="1" vertex="1">
          <mxGeometry x="80" y="-40" width="930" height="200" as="geometry"/>
        </mxCell>
        <mxCell id="mucKTUWWDkMtE_MBK47c-1" value="Android/iOS 客户端" style="text;html=1;strokeColor=none;fillColor=none;align=center;verticalAlign=middle;whiteSpace=wrap;rounded=0;" parent="1" vertex="1">
          <mxGeometry x="90" y="-30" width="110" height="20" as="geometry"/>
        </mxCell>
        <mxCell id="jLUdKfTGCnAxgIvCnTzw-56" value="步行导航算路诱导模块" style="rounded=0;whiteSpace=wrap;html=1;strokeWidth=1;opacity=40;" vertex="1" parent="1">
          <mxGeometry x="115" y="70" width="325" height="80" as="geometry"/>
        </mxCell>
        <mxCell id="mucKTUWWDkMtE_MBK47c-4" value="" style="rounded=0;whiteSpace=wrap;html=1;strokeWidth=1;opacity=40;" parent="1" vertex="1">
          <mxGeometry x="450" y="70" width="530" height="80" as="geometry"/>
        </mxCell>
        <mxCell id="mucKTUWWDkMtE_MBK47c-5" value="虚拟硬件层" style="text;html=1;strokeColor=none;fillColor=none;align=center;verticalAlign=middle;whiteSpace=wrap;rounded=0;opacity=40;" parent="1" vertex="1">
          <mxGeometry x="460" y="70" width="75" height="20" as="geometry"/>
        </mxCell>
        <mxCell id="mucKTUWWDkMtE_MBK47c-6" value="虚拟硬件接口" style="rounded=0;whiteSpace=wrap;html=1;strokeWidth=1;opacity=40;" parent="1" vertex="1">
          <mxGeometry x="460" y="97" width="510" height="20" as="geometry"/>
        </mxCell>
        <mxCell id="mucKTUWWDkMtE_MBK47c-7" value="回放模块" style="rounded=0;whiteSpace=wrap;html=1;strokeWidth=1;opacity=40;" parent="1" vertex="1">
          <mxGeometry x="460" y="124" width="120" height="20" as="geometry"/>
        </mxCell>
        <mxCell id="mucKTUWWDkMtE_MBK47c-8" value="摄像头" style="rounded=0;whiteSpace=wrap;html=1;strokeWidth=1;opacity=40;" parent="1" vertex="1">
          <mxGeometry x="590" y="124" width="120" height="20" as="geometry"/>
        </mxCell>
        <mxCell id="mucKTUWWDkMtE_MBK47c-9" value="传感器" style="rounded=0;whiteSpace=wrap;html=1;strokeWidth=1;opacity=40;" parent="1" vertex="1">
          <mxGeometry x="720" y="124" width="120" height="20" as="geometry"/>
        </mxCell>
        <mxCell id="mucKTUWWDkMtE_MBK47c-10" value="定位" style="rounded=0;whiteSpace=wrap;html=1;strokeWidth=1;opacity=40;" parent="1" vertex="1">
          <mxGeometry x="850" y="124" width="120" height="20" as="geometry"/>
        </mxCell>
        <mxCell id="jLUdKfTGCnAxgIvCnTzw-57" value="HMI" style="rounded=0;whiteSpace=wrap;html=1;strokeWidth=1;opacity=40;" vertex="1" parent="1">
          <mxGeometry x="115" y="10" width="865" height="50" as="geometry"/>
        </mxCell>
      </root>
    </mxGraphModel>
  </diagram>
  <diagram id="rXjsK7iyBgoGzdfQK3q-" name="Page-2">
    <mxGraphModel dx="1166" dy="672" grid="1" gridSize="10" guides="1" tooltips="1" connect="1" arrows="1" fold="1" page="1" pageScale="1" pageWidth="1169" pageHeight="827" math="0" shadow="0">
      <root>
        <mxCell id="4wMwwAwJHmHZ2aeerODU-0"/>
        <mxCell id="4wMwwAwJHmHZ2aeerODU-1" parent="4wMwwAwJHmHZ2aeerODU-0"/>
        <mxCell id="Sz-qq_Lz4wDUT8mBAdxe-2" value="loop" style="shape=umlFrame;whiteSpace=wrap;html=1;fillColor=#f5f5f5;strokeColor=#666666;fontColor=#333333;strokeWidth=2;" vertex="1" parent="4wMwwAwJHmHZ2aeerODU-1">
          <mxGeometry x="110" y="400" width="960" height="310" as="geometry"/>
        </mxCell>
        <mxCell id="4wMwwAwJHmHZ2aeerODU-24" value="loop" style="shape=umlFrame;whiteSpace=wrap;html=1;fillColor=#f5f5f5;strokeColor=#666666;fontColor=#333333;strokeWidth=2;" vertex="1" parent="4wMwwAwJHmHZ2aeerODU-1">
          <mxGeometry x="110" y="130" width="610" height="233" as="geometry"/>
        </mxCell>
        <mxCell id="4wMwwAwJHmHZ2aeerODU-2" value=":客户端&amp;nbsp;" style="shape=umlLifeline;perimeter=lifelinePerimeter;whiteSpace=wrap;html=1;container=1;collapsible=0;recursiveResize=0;outlineConnect=0;flipH=1;flipV=0;" vertex="1" parent="4wMwwAwJHmHZ2aeerODU-1">
          <mxGeometry x="150" y="70" width="100" height="640" as="geometry"/>
        </mxCell>
        <mxCell id="4wMwwAwJHmHZ2aeerODU-14" value="" style="html=1;points=[];perimeter=orthogonalPerimeter;" vertex="1" parent="4wMwwAwJHmHZ2aeerODU-2">
          <mxGeometry x="45" y="70" width="10" height="560" as="geometry"/>
        </mxCell>
        <mxCell id="Sz-qq_Lz4wDUT8mBAdxe-0" value="" style="html=1;points=[];perimeter=orthogonalPerimeter;" vertex="1" parent="4wMwwAwJHmHZ2aeerODU-2">
          <mxGeometry x="50" y="461" width="10" height="40" as="geometry"/>
        </mxCell>
        <mxCell id="Sz-qq_Lz4wDUT8mBAdxe-1" value="记录姿态变化历史" style="edgeStyle=orthogonalEdgeStyle;html=1;align=left;spacingLeft=2;endArrow=block;rounded=0;entryX=1;entryY=0;" edge="1" target="Sz-qq_Lz4wDUT8mBAdxe-0" parent="4wMwwAwJHmHZ2aeerODU-2">
          <mxGeometry relative="1" as="geometry">
            <mxPoint x="55" y="441" as="sourcePoint"/>
            <Array as="points">
              <mxPoint x="80" y="441"/>
            </Array>
          </mxGeometry>
        </mxCell>
        <mxCell id="Sz-qq_Lz4wDUT8mBAdxe-3" value="" style="html=1;points=[];perimeter=orthogonalPerimeter;" vertex="1" parent="4wMwwAwJHmHZ2aeerODU-2">
          <mxGeometry x="50" y="580" width="10" height="40" as="geometry"/>
        </mxCell>
        <mxCell id="Sz-qq_Lz4wDUT8mBAdxe-4" value="拿到初始位置，回溯姿态变化历史，完成初定位" style="edgeStyle=orthogonalEdgeStyle;html=1;align=left;spacingLeft=2;endArrow=block;rounded=0;entryX=1;entryY=0;" edge="1" target="Sz-qq_Lz4wDUT8mBAdxe-3" parent="4wMwwAwJHmHZ2aeerODU-2">
          <mxGeometry relative="1" as="geometry">
            <mxPoint x="55" y="560" as="sourcePoint"/>
            <Array as="points">
              <mxPoint x="80" y="560"/>
            </Array>
          </mxGeometry>
        </mxCell>
        <mxCell id="4wMwwAwJHmHZ2aeerODU-3" value=":定位" style="shape=umlLifeline;perimeter=lifelinePerimeter;whiteSpace=wrap;html=1;container=1;collapsible=0;recursiveResize=0;outlineConnect=0;flipH=1;flipV=0;" vertex="1" parent="4wMwwAwJHmHZ2aeerODU-1">
          <mxGeometry x="313" y="70" width="100" height="640" as="geometry"/>
        </mxCell>
        <mxCell id="4wMwwAwJHmHZ2aeerODU-8" value="" style="html=1;points=[];perimeter=orthogonalPerimeter;" vertex="1" parent="4wMwwAwJHmHZ2aeerODU-3">
          <mxGeometry x="45" y="80" width="10" height="80" as="geometry"/>
        </mxCell>
        <mxCell id="4wMwwAwJHmHZ2aeerODU-4" value=":传感器" style="shape=umlLifeline;perimeter=lifelinePerimeter;whiteSpace=wrap;html=1;container=1;collapsible=0;recursiveResize=0;outlineConnect=0;flipH=1;flipV=0;" vertex="1" parent="4wMwwAwJHmHZ2aeerODU-1">
          <mxGeometry x="476" y="70" width="100" height="640" as="geometry"/>
        </mxCell>
        <mxCell id="4wMwwAwJHmHZ2aeerODU-11" value="" style="html=1;points=[];perimeter=orthogonalPerimeter;" vertex="1" parent="4wMwwAwJHmHZ2aeerODU-4">
          <mxGeometry x="45" y="97" width="10" height="80" as="geometry"/>
        </mxCell>
        <mxCell id="4wMwwAwJHmHZ2aeerODU-5" value=":视觉定位服务" style="shape=umlLifeline;perimeter=lifelinePerimeter;whiteSpace=wrap;html=1;container=1;collapsible=0;recursiveResize=0;outlineConnect=0;flipH=1;flipV=0;" vertex="1" parent="4wMwwAwJHmHZ2aeerODU-1">
          <mxGeometry x="802" y="70" width="100" height="640" as="geometry"/>
        </mxCell>
        <mxCell id="4wMwwAwJHmHZ2aeerODU-6" value=":ARCore" style="shape=umlLifeline;perimeter=lifelinePerimeter;whiteSpace=wrap;html=1;container=1;collapsible=0;recursiveResize=0;outlineConnect=0;flipH=1;flipV=0;" vertex="1" parent="4wMwwAwJHmHZ2aeerODU-1">
          <mxGeometry x="965" y="70" width="100" height="640" as="geometry"/>
        </mxCell>
        <mxCell id="4wMwwAwJHmHZ2aeerODU-31" value="" style="html=1;points=[];perimeter=orthogonalPerimeter;" vertex="1" parent="4wMwwAwJHmHZ2aeerODU-6">
          <mxGeometry x="45" y="350" width="10" height="80" as="geometry"/>
        </mxCell>
        <mxCell id="4wMwwAwJHmHZ2aeerODU-9" value="请求定位" style="html=1;verticalAlign=bottom;endArrow=block;entryX=0;entryY=0;exitX=1;exitY=0.018;exitDx=0;exitDy=0;exitPerimeter=0;" edge="1" target="4wMwwAwJHmHZ2aeerODU-8" parent="4wMwwAwJHmHZ2aeerODU-1" source="4wMwwAwJHmHZ2aeerODU-14">
          <mxGeometry relative="1" as="geometry">
            <mxPoint x="250" y="156" as="sourcePoint"/>
          </mxGeometry>
        </mxCell>
        <mxCell id="4wMwwAwJHmHZ2aeerODU-10" value="融合定位结果" style="html=1;verticalAlign=bottom;endArrow=open;dashed=1;endSize=8;exitX=0;exitY=0.95;entryX=0.9;entryY=0.155;entryDx=0;entryDy=0;entryPerimeter=0;" edge="1" source="4wMwwAwJHmHZ2aeerODU-8" parent="4wMwwAwJHmHZ2aeerODU-1" target="4wMwwAwJHmHZ2aeerODU-14">
          <mxGeometry relative="1" as="geometry">
            <mxPoint x="250" y="226" as="targetPoint"/>
          </mxGeometry>
        </mxCell>
        <mxCell id="4wMwwAwJHmHZ2aeerODU-12" value="请求设备姿态" style="html=1;verticalAlign=bottom;endArrow=block;entryX=0;entryY=0;exitX=1.2;exitY=0.046;exitDx=0;exitDy=0;exitPerimeter=0;" edge="1" target="4wMwwAwJHmHZ2aeerODU-11" parent="4wMwwAwJHmHZ2aeerODU-1" source="4wMwwAwJHmHZ2aeerODU-14">
          <mxGeometry x="0.4154" relative="1" as="geometry">
            <mxPoint x="230" y="167" as="sourcePoint"/>
            <mxPoint as="offset"/>
          </mxGeometry>
        </mxCell>
        <mxCell id="4wMwwAwJHmHZ2aeerODU-13" value="融合姿态结果" style="html=1;verticalAlign=bottom;endArrow=open;dashed=1;endSize=8;exitX=0;exitY=0.95;entryX=0.9;entryY=0.353;entryDx=0;entryDy=0;entryPerimeter=0;" edge="1" source="4wMwwAwJHmHZ2aeerODU-11" parent="4wMwwAwJHmHZ2aeerODU-1">
          <mxGeometry x="-0.3968" relative="1" as="geometry">
            <mxPoint x="204" y="244.08000000000004" as="targetPoint"/>
            <mxPoint as="offset"/>
          </mxGeometry>
        </mxCell>
        <mxCell id="4wMwwAwJHmHZ2aeerODU-15" value=":摄像头" style="shape=umlLifeline;perimeter=lifelinePerimeter;whiteSpace=wrap;html=1;container=1;collapsible=0;recursiveResize=0;outlineConnect=0;flipH=1;flipV=0;" vertex="1" parent="4wMwwAwJHmHZ2aeerODU-1">
          <mxGeometry x="639" y="70" width="100" height="640" as="geometry"/>
        </mxCell>
        <mxCell id="4wMwwAwJHmHZ2aeerODU-19" value="" style="html=1;points=[];perimeter=orthogonalPerimeter;" vertex="1" parent="4wMwwAwJHmHZ2aeerODU-1">
          <mxGeometry x="685" y="187.16" width="10" height="80" as="geometry"/>
        </mxCell>
        <mxCell id="4wMwwAwJHmHZ2aeerODU-20" value="请求图片" style="html=1;verticalAlign=bottom;endArrow=block;entryX=0;entryY=0;exitX=0.9;exitY=0.084;exitDx=0;exitDy=0;exitPerimeter=0;" edge="1" parent="4wMwwAwJHmHZ2aeerODU-1" target="4wMwwAwJHmHZ2aeerODU-19" source="4wMwwAwJHmHZ2aeerODU-14">
          <mxGeometry x="0.7292" relative="1" as="geometry">
            <mxPoint x="230" y="187" as="sourcePoint"/>
            <mxPoint as="offset"/>
          </mxGeometry>
        </mxCell>
        <mxCell id="4wMwwAwJHmHZ2aeerODU-21" value="返回图片帧" style="html=1;verticalAlign=bottom;endArrow=open;dashed=1;endSize=8;exitX=0;exitY=0.95;entryX=0.9;entryY=0.225;entryDx=0;entryDy=0;entryPerimeter=0;" edge="1" parent="4wMwwAwJHmHZ2aeerODU-1" source="4wMwwAwJHmHZ2aeerODU-19" target="4wMwwAwJHmHZ2aeerODU-14">
          <mxGeometry x="-0.7297" y="1" relative="1" as="geometry">
            <mxPoint x="250" y="264" as="targetPoint"/>
            <mxPoint as="offset"/>
          </mxGeometry>
        </mxCell>
        <mxCell id="4wMwwAwJHmHZ2aeerODU-22" value="" style="html=1;points=[];perimeter=orthogonalPerimeter;" vertex="1" parent="4wMwwAwJHmHZ2aeerODU-1">
          <mxGeometry x="200" y="307" width="10" height="40" as="geometry"/>
        </mxCell>
        <mxCell id="4wMwwAwJHmHZ2aeerODU-23" value="对齐时间戳" style="edgeStyle=orthogonalEdgeStyle;html=1;align=left;spacingLeft=2;endArrow=block;rounded=0;entryX=1;entryY=0;" edge="1" target="4wMwwAwJHmHZ2aeerODU-22" parent="4wMwwAwJHmHZ2aeerODU-1">
          <mxGeometry relative="1" as="geometry">
            <mxPoint x="205" y="287" as="sourcePoint"/>
            <Array as="points">
              <mxPoint x="230" y="287"/>
            </Array>
          </mxGeometry>
        </mxCell>
        <mxCell id="4wMwwAwJHmHZ2aeerODU-26" value="要求用户扫描环境的过程，需要循环几次以达到视觉定位服务的要求" style="shape=note;whiteSpace=wrap;html=1;size=14;verticalAlign=top;align=left;spacingTop=-6;" vertex="1" parent="4wMwwAwJHmHZ2aeerODU-1">
          <mxGeometry x="50" y="194.66" width="120" height="65" as="geometry"/>
        </mxCell>
        <mxCell id="4wMwwAwJHmHZ2aeerODU-27" value="" style="html=1;points=[];perimeter=orthogonalPerimeter;" vertex="1" parent="4wMwwAwJHmHZ2aeerODU-1">
          <mxGeometry x="847" y="390" width="10" height="230" as="geometry"/>
        </mxCell>
        <mxCell id="4wMwwAwJHmHZ2aeerODU-28" value="将扫描结果和设备参数上传服务端" style="html=1;verticalAlign=bottom;endArrow=block;entryX=0;entryY=0;exitX=1;exitY=0.445;exitDx=0;exitDy=0;exitPerimeter=0;" edge="1" target="4wMwwAwJHmHZ2aeerODU-27" parent="4wMwwAwJHmHZ2aeerODU-1" source="4wMwwAwJHmHZ2aeerODU-14">
          <mxGeometry x="0.0125" relative="1" as="geometry">
            <mxPoint x="250" y="390" as="sourcePoint"/>
            <mxPoint as="offset"/>
          </mxGeometry>
        </mxCell>
        <mxCell id="4wMwwAwJHmHZ2aeerODU-29" value="返回精准定位、姿态结果" style="html=1;verticalAlign=bottom;endArrow=open;dashed=1;endSize=8;exitX=0;exitY=0.95;entryX=0.9;entryY=0.834;entryDx=0;entryDy=0;entryPerimeter=0;" edge="1" source="4wMwwAwJHmHZ2aeerODU-27" parent="4wMwwAwJHmHZ2aeerODU-1" target="4wMwwAwJHmHZ2aeerODU-14">
          <mxGeometry relative="1" as="geometry">
            <mxPoint x="210" y="466" as="targetPoint"/>
          </mxGeometry>
        </mxCell>
        <mxCell id="4wMwwAwJHmHZ2aeerODU-32" value="VSLAM 视觉定位" style="html=1;verticalAlign=bottom;endArrow=block;entryX=0;entryY=0;exitX=1;exitY=0.502;exitDx=0;exitDy=0;exitPerimeter=0;" edge="1" target="4wMwwAwJHmHZ2aeerODU-31" parent="4wMwwAwJHmHZ2aeerODU-1" source="4wMwwAwJHmHZ2aeerODU-14">
          <mxGeometry relative="1" as="geometry">
            <mxPoint x="210" y="420" as="sourcePoint"/>
          </mxGeometry>
        </mxCell>
        <mxCell id="4wMwwAwJHmHZ2aeerODU-33" value="返回设备姿态变化" style="html=1;verticalAlign=bottom;endArrow=open;dashed=1;endSize=8;exitX=0;exitY=0.95;entryX=1;entryY=0.636;entryDx=0;entryDy=0;entryPerimeter=0;" edge="1" source="4wMwwAwJHmHZ2aeerODU-31" parent="4wMwwAwJHmHZ2aeerODU-1" target="4wMwwAwJHmHZ2aeerODU-14">
          <mxGeometry relative="1" as="geometry">
            <mxPoint x="210" y="496" as="targetPoint"/>
          </mxGeometry>
        </mxCell>
        <mxCell id="Sz-qq_Lz4wDUT8mBAdxe-5" value="break" style="shape=umlFrame;whiteSpace=wrap;html=1;fillColor=#f5f5f5;strokeColor=#666666;fontColor=#333333;strokeWidth=2;" vertex="1" parent="4wMwwAwJHmHZ2aeerODU-1">
          <mxGeometry x="120" y="580" width="780" height="120" as="geometry"/>
        </mxCell>
        <mxCell id="Sz-qq_Lz4wDUT8mBAdxe-6" value="请求服务后不断记录姿态变化，直到定位结果返回后进行回溯，还原当前姿态" style="shape=note;whiteSpace=wrap;html=1;size=14;verticalAlign=top;align=left;spacingTop=-6;" vertex="1" parent="4wMwwAwJHmHZ2aeerODU-1">
          <mxGeometry x="50" y="450" width="130" height="70" as="geometry"/>
        </mxCell>
      </root>
    </mxGraphModel>
  </diagram>
</mxfile>
